# xmcd
#
# Track frame offsets: 
#        150
#        20375
#        36778
#        52392
#        70110
#        87689
#        105167
#        120245
#        133654
#        145728
#        160733
#        175254
#        189071
#        205580
#        221587
#
# Disc length: 3132 seconds
#
# Revision: 4
# Processed by: cddbd v1.5.2PL0 Copyright (c) Steve Scherf et al.
# Submitted via: ExactAudioCopyFreeDBPlugin 1.0
#
DISCID=c80c3a0f
DTITLE=Johnny Cash - American IV - The Man Comes Around
DYEAR=2002
DGENRE=Country
TTITLE0=The Man Comes Around
TTITLE1=Hurt
TTITLE2=Give My Love To Rose
TTITLE3=Bridge Over Troubled Water
TTITLE4=I Hung My Head
TTITLE5=First Time Ever I Saw Your Face
TTITLE6=Personal Jesus
TTITLE7=In My Life
TTITLE8=Sam Hall
TTITLE9=Danny Boy
TTITLE10=Desperado
TTITLE11=I'm So Lonesome I Could Cry
TTITLE12=Tear Stained Letter
TTITLE13=Streets Of Laredo
TTITLE14=We'll Meet Again
EXTD=CD 2002\nAmerican Recordings 8 8697-80374 2
EXTT0=Johnny Cash
EXTT1=Trent Reznor
EXTT2=Johnny Cash
EXTT3=Paul Simon\nfeat: Fiona Apple
EXTT4=Sting
EXTT5=Ewan MacColl
EXTT6=Martin Gore
EXTT7=John Lennon/Paul McCartney
EXTT8=Tex Ritter
EXTT9=Frederick Edward Weatherly
EXTT10=Glenn Frey/Don Henley\nfeat: Don Henley
EXTT11=Hank Williams\nfeat: Nick Cave
EXTT12=Johnny Cash
EXTT13=Traditional
EXTT14=Hughie Charles/Ross Parker
PLAYORDER=
